<svg width="295" height="101" viewBox="0 0 295 101" fill="none" xmlns="http://www.w3.org/2000/svg">
<rect x="33.001" y="39.001" width="225" height="62" fill="#535353"/>
<rect x="36.2959" y="42.2568" width="218.41" height="55.4889" stroke="white"/>
<path d="M85.613 78.484C85.361 78.092 85.046 77.651 84.668 77.161C84.29 76.671 83.912 76.272 83.534 75.964C85.018 75.278 86.418 74.417 87.734 73.381C89.064 72.331 90.261 71.19 91.325 69.958C90.681 69.454 90.058 68.999 89.456 68.593C88.854 68.173 88.315 67.851 87.839 67.627L89.708 65.464C90.226 65.716 90.779 66.024 91.367 66.388C91.955 66.738 92.55 67.123 93.152 67.543C93.74 66.647 94.251 65.737 94.685 64.813C95.133 63.875 95.476 62.951 95.714 62.041L98.738 63.07C98.01 65.296 96.974 67.417 95.63 69.433C96.302 69.979 96.925 70.518 97.499 71.05C98.087 71.582 98.598 72.086 99.032 72.562C98.766 72.772 98.486 73.031 98.192 73.339C97.898 73.647 97.611 73.962 97.331 74.284C97.065 74.592 96.841 74.872 96.659 75.124C95.931 74.2 94.951 73.164 93.719 72.016C92.599 73.332 91.353 74.543 89.981 75.649C88.623 76.755 87.167 77.7 85.613 78.484ZM107.495 77.581L105.71 74.389C106.704 74.207 107.761 73.885 108.881 73.423C110.001 72.947 111.121 72.38 112.241 71.722C113.375 71.05 114.453 70.329 115.475 69.559C116.511 68.775 117.435 67.991 118.247 67.207C119.073 66.423 119.731 65.674 120.221 64.96C120.291 65.268 120.403 65.639 120.557 66.073C120.711 66.493 120.879 66.906 121.061 67.312C121.243 67.704 121.404 68.026 121.544 68.278C120.844 69.174 119.976 70.084 118.94 71.008C117.918 71.918 116.784 72.793 115.538 73.633C114.292 74.473 112.983 75.236 111.611 75.922C110.253 76.594 108.881 77.147 107.495 77.581ZM109.469 68.404C109.273 68.194 109.007 67.956 108.671 67.69C108.335 67.41 107.964 67.13 107.558 66.85C107.152 66.556 106.753 66.283 106.361 66.031C105.969 65.779 105.626 65.583 105.332 65.443L107.432 62.818C107.838 63.042 108.307 63.329 108.839 63.679C109.385 64.029 109.917 64.393 110.435 64.771C110.953 65.149 111.373 65.499 111.695 65.821L109.469 68.404ZM127.256 75.418C126.92 75.04 126.507 74.641 126.017 74.221C125.541 73.801 125.051 73.437 124.547 73.129C125.499 72.471 126.353 71.694 127.109 70.798C127.879 69.888 128.523 68.936 129.041 67.942C129.573 66.948 129.937 65.989 130.133 65.065L133.262 66.094C132.982 67.242 132.562 68.39 132.002 69.538C131.442 70.672 130.763 71.743 129.965 72.751C129.167 73.759 128.264 74.648 127.256 75.418ZM140.906 74.851C140.654 74.193 140.332 73.486 139.94 72.73C139.548 71.96 139.121 71.197 138.659 70.441C138.197 69.685 137.721 68.992 137.231 68.362C136.741 67.718 136.279 67.193 135.845 66.787L138.407 65.044C138.911 65.506 139.436 66.052 139.982 66.682C140.528 67.312 141.06 67.991 141.578 68.719C142.096 69.433 142.572 70.168 143.006 70.924C143.454 71.666 143.832 72.38 144.14 73.066C143.664 73.29 143.139 73.556 142.565 73.864C141.991 74.158 141.438 74.487 140.906 74.851ZM140.465 65.317C140.199 64.869 139.863 64.414 139.457 63.952C139.065 63.476 138.708 63.091 138.386 62.797L139.751 61.705C139.933 61.873 140.164 62.111 140.444 62.419C140.724 62.727 140.997 63.042 141.263 63.364C141.529 63.686 141.739 63.966 141.893 64.204L140.465 65.317ZM142.481 63.7C142.215 63.252 141.879 62.797 141.473 62.335C141.081 61.859 140.724 61.474 140.402 61.18L141.767 60.088C141.949 60.256 142.18 60.494 142.46 60.802C142.74 61.11 143.013 61.432 143.279 61.768C143.545 62.09 143.755 62.363 143.909 62.587L142.481 63.7ZM146.996 71.701C147.01 71.449 147.01 71.12 146.996 70.714C146.996 70.308 146.996 69.902 146.996 69.496C146.996 69.09 146.989 68.761 146.975 68.509C147.171 68.523 147.598 68.544 148.256 68.572C148.914 68.586 149.719 68.6 150.671 68.614C151.623 68.614 152.652 68.621 153.758 68.635C154.878 68.635 155.998 68.635 157.118 68.635C158.238 68.635 159.288 68.635 160.268 68.635C161.262 68.621 162.109 68.607 162.809 68.593C163.509 68.565 163.985 68.537 164.237 68.509C164.223 68.733 164.209 69.055 164.195 69.475C164.195 69.881 164.195 70.287 164.195 70.693C164.209 71.099 164.216 71.421 164.216 71.659C163.894 71.645 163.397 71.631 162.725 71.617C162.053 71.589 161.262 71.568 160.352 71.554C159.442 71.54 158.469 71.533 157.433 71.533C156.397 71.533 155.354 71.533 154.304 71.533C153.254 71.533 152.246 71.54 151.28 71.554C150.328 71.568 149.481 71.589 148.739 71.617C147.997 71.631 147.416 71.659 146.996 71.701ZM170.201 79.555V73.654C170.117 74.102 170.012 74.571 169.886 75.061C169.76 75.551 169.627 76.013 169.487 76.447C169.347 76.881 169.214 77.238 169.088 77.518C168.738 77.364 168.325 77.231 167.849 77.119C167.373 77.007 166.96 76.923 166.61 76.867C166.806 76.503 166.995 76.041 167.177 75.481C167.359 74.921 167.52 74.347 167.66 73.759C167.814 73.157 167.919 72.611 167.975 72.121L170.201 72.541V71.281C169.683 71.351 169.186 71.421 168.71 71.491C168.234 71.547 167.814 71.589 167.45 71.617L167.093 68.845C167.541 68.845 168.045 68.824 168.605 68.782C169.011 68.348 169.48 67.781 170.012 67.081C169.536 66.745 168.997 66.381 168.395 65.989C167.807 65.597 167.268 65.268 166.778 65.002L168.206 62.692C168.318 62.748 168.43 62.811 168.542 62.881C168.654 62.951 168.78 63.028 168.92 63.112C169.102 62.804 169.284 62.468 169.466 62.104C169.662 61.726 169.844 61.362 170.012 61.012C170.18 60.648 170.313 60.347 170.411 60.109L173.015 61.138C172.707 61.684 172.371 62.258 172.007 62.86C171.657 63.448 171.321 63.987 170.999 64.477C171.111 64.533 171.209 64.596 171.293 64.666C171.391 64.736 171.482 64.799 171.566 64.855C171.93 64.323 172.252 63.826 172.532 63.364C172.826 62.888 173.057 62.489 173.225 62.167L175.703 63.448C175.437 63.896 175.101 64.414 174.695 65.002C174.303 65.576 173.883 66.171 173.435 66.787C172.987 67.403 172.546 67.991 172.112 68.551C172.35 68.523 172.574 68.502 172.784 68.488C172.994 68.46 173.197 68.439 173.393 68.425C173.337 68.229 173.274 68.054 173.204 67.9C173.148 67.732 173.092 67.578 173.036 67.438L175.388 66.535C175.5 66.759 175.612 67.011 175.724 67.291C175.836 67.571 175.941 67.865 176.039 68.173C176.949 67.655 177.6 67.039 177.992 66.325C178.398 65.597 178.629 64.645 178.685 63.469H175.976V61.012H186.245C186.245 61.544 186.231 62.125 186.203 62.755C186.189 63.385 186.154 64.008 186.098 64.624C186.056 65.24 186.007 65.814 185.951 66.346C185.909 66.864 185.853 67.291 185.783 67.627C185.601 68.565 185.23 69.202 184.67 69.538C184.124 69.874 183.375 70.042 182.423 70.042H181.373C181.359 69.79 181.317 69.496 181.247 69.16C181.191 68.81 181.121 68.467 181.037 68.131C180.967 67.781 180.883 67.508 180.785 67.312H181.856C182.304 67.312 182.605 67.249 182.759 67.123C182.927 66.983 183.039 66.773 183.095 66.493C183.165 66.115 183.228 65.632 183.284 65.044C183.34 64.442 183.368 63.917 183.368 63.469H181.436C181.366 65.079 181.037 66.437 180.449 67.543C179.861 68.649 178.923 69.58 177.635 70.336C177.495 70.098 177.292 69.839 177.026 69.559C176.774 69.265 176.515 68.999 176.249 68.761C176.361 69.097 176.459 69.426 176.543 69.748C176.641 70.07 176.718 70.35 176.774 70.588H185.762V79.324H176.648V70.777C176.256 70.875 175.829 71.008 175.367 71.176C174.905 71.33 174.52 71.484 174.212 71.638C174.198 71.498 174.17 71.351 174.128 71.197C174.1 71.029 174.065 70.854 174.023 70.672C173.869 70.7 173.701 70.735 173.519 70.777C173.351 70.805 173.176 70.833 172.994 70.861V72.394L175.325 71.785C175.367 72.023 175.437 72.331 175.535 72.709C175.633 73.073 175.738 73.458 175.85 73.864C175.976 74.27 176.095 74.655 176.207 75.019C176.319 75.369 176.417 75.656 176.501 75.88C176.109 75.978 175.696 76.118 175.262 76.3C174.828 76.468 174.429 76.65 174.065 76.846C174.009 76.636 173.932 76.349 173.834 75.985C173.736 75.621 173.631 75.229 173.519 74.809C173.421 74.375 173.323 73.948 173.225 73.528C173.127 73.108 173.05 72.744 172.994 72.436V79.555H170.201ZM179.42 76.804H183.011V73.108H179.42V76.804ZM189.689 69.622C189.493 69.216 189.199 68.768 188.807 68.278C188.415 67.788 188.023 67.396 187.631 67.102C188.485 66.766 189.367 66.325 190.277 65.779C191.201 65.219 192.083 64.61 192.923 63.952C193.777 63.28 194.54 62.608 195.212 61.936C195.884 61.25 196.395 60.627 196.745 60.067L199.685 60.466C200.147 61.068 200.728 61.677 201.428 62.293C202.128 62.909 202.884 63.504 203.696 64.078C204.508 64.638 205.327 65.142 206.153 65.59C206.979 66.038 207.749 66.388 208.463 66.64C208.183 66.864 207.896 67.144 207.602 67.48C207.308 67.816 207.042 68.166 206.804 68.53C206.566 68.88 206.377 69.195 206.237 69.475C205.593 69.181 204.893 68.803 204.137 68.341C203.381 67.879 202.625 67.368 201.869 66.808C201.127 66.234 200.434 65.646 199.79 65.044C199.146 64.442 198.6 63.861 198.152 63.301C197.76 63.805 197.221 64.358 196.535 64.96C195.849 65.562 195.093 66.164 194.267 66.766C193.455 67.368 192.643 67.921 191.831 68.425C191.033 68.929 190.319 69.328 189.689 69.622ZM191.138 79.807C190.956 79.401 190.683 78.946 190.319 78.442C189.969 77.952 189.591 77.532 189.185 77.182C190.235 76.86 191.075 76.44 191.705 75.922C192.335 75.39 192.804 74.746 193.112 73.99C193.42 73.22 193.609 72.331 193.679 71.323C193.749 70.301 193.749 69.146 193.679 67.858H196.85C196.962 70.07 196.829 71.953 196.451 73.507C196.087 75.061 195.464 76.349 194.582 77.371C193.714 78.379 192.566 79.191 191.138 79.807ZM199.664 79.513V67.858H202.835V79.513H199.664Z" fill="white"/>
<path d="M50.2865 97.961L49.4724 98.1954L49.4385 98.0779L49.2295 97.3519L49.8967 97.1597L50.0436 97.1175L50.2865 97.961Z" fill="#B4D4FF"/>
<path d="M49.2917 98.1202L49.0488 97.2767L49.2295 97.3519L49.4385 98.0779L49.4724 98.1954L49.2917 98.1202Z" fill="#9BBBE8"/>
<path d="M49.0488 97.2767L49.8629 97.0423L50.0436 97.1175L49.8967 97.1597L49.2295 97.3519L49.0488 97.2767Z" fill="#D0E4FF"/>
<ellipse rx="0.11126" ry="0.131944" transform="matrix(0.960957 -0.276698 -0.276698 -0.960957 49.9161 97.484)" fill="white"/>
<path d="M49.8787 97.5546C49.8717 97.557 49.8639 97.5529 49.8629 97.5453C49.8606 97.5297 49.863 97.5136 49.8699 97.4994C49.8789 97.4811 49.8945 97.4673 49.9135 97.4611C49.9326 97.4549 49.9533 97.4567 49.9713 97.4663C49.9851 97.4736 49.9964 97.4851 50.0038 97.499C50.0074 97.5058 50.0034 97.5139 49.9963 97.5162C49.9892 97.5185 49.9818 97.5143 49.9776 97.508C49.973 97.5009 49.9666 97.4951 49.9592 97.4911C49.9477 97.485 49.9344 97.4838 49.9222 97.4878C49.91 97.4918 49.9 97.5006 49.8943 97.5124C49.8906 97.5199 49.8889 97.5282 49.8893 97.5365C49.8896 97.5443 49.8859 97.5523 49.8787 97.5546Z" fill="#737373"/>
<ellipse rx="0.11126" ry="0.131944" transform="matrix(0.960957 -0.276698 -0.276698 -0.960957 49.5685 97.5841)" fill="white"/>
<path d="M49.5281 97.6582C49.5211 97.6605 49.5134 97.6565 49.5123 97.6489C49.51 97.6332 49.5124 97.6171 49.5193 97.6029C49.5283 97.5846 49.544 97.5708 49.563 97.5646C49.582 97.5584 49.6027 97.5602 49.6207 97.5698C49.6345 97.5771 49.6458 97.5886 49.6532 97.6025C49.6569 97.6093 49.6529 97.6174 49.6457 97.6197C49.6386 97.622 49.6312 97.6179 49.627 97.6115C49.6224 97.6044 49.6161 97.5986 49.6086 97.5946C49.5971 97.5885 49.5838 97.5873 49.5716 97.5913C49.5595 97.5953 49.5494 97.6041 49.5437 97.6159C49.5401 97.6234 49.5384 97.6317 49.5387 97.64C49.539 97.6478 49.5353 97.6558 49.5281 97.6582Z" fill="#737373"/>
<path d="M269.487 49.2417L276.132 55.3118" stroke="#535353" stroke-width="2" stroke-linecap="round"/>
<path d="M273.656 41.2046L282.444 43.1457" stroke="#535353" stroke-width="2" stroke-linecap="round"/>
<path d="M273.238 32.1177L281.816 29.3917" stroke="#535353" stroke-width="2" stroke-linecap="round"/>
<path d="M268.32 24.4731L274.365 17.8054" stroke="#535353" stroke-width="2" stroke-linecap="round"/>
<path d="M260.262 20.3335L262.17 11.5382" stroke="#535353" stroke-width="2" stroke-linecap="round"/>
<path d="M251.191 20.7847L248.433 12.2177" stroke="#535353" stroke-width="2" stroke-linecap="round"/>
<path d="M243.668 25.6108L237.035 19.5282" stroke="#535353" stroke-width="2" stroke-linecap="round"/>
</svg>
