<svg width="295" height="101" viewBox="0 0 295 101" fill="none" xmlns="http://www.w3.org/2000/svg">
<rect x="33.001" y="39.001" width="225" height="62" fill="#535353"/>
<rect x="36.2959" y="42.2568" width="218.41" height="55.4889" stroke="white"/>
<path d="M93.5287 78.001L88.3837 63.301H91.3027L94.9147 74.326L98.5477 63.301H101.467L96.3007 78.001H93.5287ZM103.245 78.001V63.301H105.975V78.001H103.245ZM108.992 78.001V63.301H119.009V65.821H111.722V69.244H118.379V71.764H111.722V75.481H119.24V78.001H108.992ZM123.69 78.001L120.498 63.301H123.312L125.16 73.087L127.638 63.301H130.074L132.552 73.087L134.4 63.301H137.235L134.043 78.001H131.544L128.856 67.522L126.168 78.001H123.69ZM145.305 78.001V63.301H148.035L152.025 70.231L155.973 63.301H158.724V78.001H155.952V68.026L152.802 73.738H151.206L148.056 68.026V78.001H145.305ZM167.953 78.358C166.623 78.358 165.433 78.043 164.383 77.413C163.333 76.783 162.507 75.894 161.905 74.746C161.317 73.584 161.023 72.219 161.023 70.651C161.023 69.069 161.317 67.704 161.905 66.556C162.507 65.394 163.333 64.498 164.383 63.868C165.433 63.224 166.623 62.902 167.953 62.902C169.283 62.902 170.466 63.224 171.502 63.868C172.552 64.498 173.371 65.394 173.959 66.556C174.561 67.704 174.862 69.069 174.862 70.651C174.862 72.219 174.561 73.584 173.959 74.746C173.371 75.894 172.552 76.783 171.502 77.413C170.466 78.043 169.283 78.358 167.953 78.358ZM167.953 75.712C168.793 75.712 169.514 75.502 170.116 75.082C170.732 74.648 171.201 74.053 171.523 73.297C171.859 72.541 172.027 71.659 172.027 70.651C172.027 69.629 171.859 68.74 171.523 67.984C171.201 67.228 170.732 66.64 170.116 66.22C169.514 65.786 168.793 65.569 167.953 65.569C167.127 65.569 166.406 65.786 165.79 66.22C165.188 66.64 164.719 67.228 164.383 67.984C164.047 68.74 163.879 69.629 163.879 70.651C163.879 71.659 164.047 72.541 164.383 73.297C164.719 74.053 165.188 74.648 165.79 75.082C166.406 75.502 167.127 75.712 167.953 75.712ZM177.184 78.001V63.301H183.988C184.912 63.301 185.71 63.441 186.382 63.721C187.068 64.001 187.593 64.456 187.957 65.086C188.335 65.716 188.524 66.563 188.524 67.627C188.524 68.943 188.237 69.937 187.663 70.609C187.103 71.267 186.326 71.687 185.332 71.869L188.314 78.001H185.143L182.539 71.995H179.914V78.001H177.184ZM179.914 69.454H183.61C184.24 69.454 184.737 69.314 185.101 69.034C185.465 68.754 185.647 68.285 185.647 67.627C185.647 66.983 185.465 66.521 185.101 66.241C184.737 65.961 184.24 65.821 183.61 65.821H179.914V69.454ZM190.848 78.001V63.301H200.865V65.821H193.578V69.244H200.235V71.764H193.578V75.481H201.096V78.001H190.848Z" fill="white"/>
<path d="M50.2865 97.961L49.4724 98.1954L49.4385 98.0779L49.2295 97.3519L49.8967 97.1597L50.0436 97.1175L50.2865 97.961Z" fill="#B4D4FF"/>
<path d="M49.2917 98.1202L49.0488 97.2767L49.2295 97.3519L49.4385 98.0779L49.4724 98.1954L49.2917 98.1202Z" fill="#9BBBE8"/>
<path d="M49.0488 97.2767L49.8629 97.0423L50.0436 97.1175L49.8967 97.1597L49.2295 97.3519L49.0488 97.2767Z" fill="#D0E4FF"/>
<ellipse rx="0.11126" ry="0.131944" transform="matrix(0.960957 -0.276698 -0.276698 -0.960957 49.9161 97.484)" fill="white"/>
<path d="M49.8787 97.5545C49.8717 97.5568 49.8639 97.5528 49.8629 97.5452C49.8606 97.5295 49.863 97.5135 49.8699 97.4993C49.8789 97.481 49.8945 97.4672 49.9135 97.461C49.9326 97.4547 49.9533 97.4566 49.9713 97.4662C49.9851 97.4735 49.9964 97.485 50.0038 97.4988C50.0074 97.5057 50.0034 97.5137 49.9963 97.5161C49.9892 97.5184 49.9818 97.5142 49.9776 97.5079C49.973 97.5008 49.9666 97.495 49.9592 97.491C49.9477 97.4849 49.9344 97.4837 49.9222 97.4877C49.91 97.4917 49.9 97.5005 49.8943 97.5122C49.8906 97.5197 49.8889 97.5281 49.8893 97.5364C49.8896 97.5442 49.8859 97.5522 49.8787 97.5545Z" fill="#737373"/>
<ellipse rx="0.11126" ry="0.131944" transform="matrix(0.960957 -0.276698 -0.276698 -0.960957 49.5685 97.5842)" fill="white"/>
<path d="M49.5281 97.6579C49.5211 97.6602 49.5134 97.6562 49.5123 97.6486C49.51 97.6329 49.5124 97.6169 49.5193 97.6027C49.5283 97.5844 49.544 97.5706 49.563 97.5644C49.582 97.5581 49.6027 97.56 49.6207 97.5695C49.6345 97.5769 49.6458 97.5883 49.6532 97.6022C49.6569 97.6091 49.6529 97.6171 49.6457 97.6195C49.6386 97.6218 49.6312 97.6176 49.627 97.6112C49.6224 97.6042 49.6161 97.5984 49.6086 97.5944C49.5971 97.5883 49.5838 97.5871 49.5716 97.5911C49.5595 97.5951 49.5494 97.6039 49.5437 97.6156C49.5401 97.6231 49.5384 97.6315 49.5387 97.6398C49.539 97.6476 49.5353 97.6556 49.5281 97.6579Z" fill="#737373"/>
<path d="M269.487 49.2418L276.132 55.3119" stroke="#535353" stroke-width="2" stroke-linecap="round"/>
<path d="M273.656 41.2047L282.444 43.1458" stroke="#535353" stroke-width="2" stroke-linecap="round"/>
<path d="M273.238 32.1178L281.816 29.3918" stroke="#535353" stroke-width="2" stroke-linecap="round"/>
<path d="M268.32 24.4733L274.365 17.8055" stroke="#535353" stroke-width="2" stroke-linecap="round"/>
<path d="M260.262 20.3336L262.17 11.5383" stroke="#535353" stroke-width="2" stroke-linecap="round"/>
<path d="M251.191 20.7848L248.433 12.2178" stroke="#535353" stroke-width="2" stroke-linecap="round"/>
<path d="M243.668 25.611L237.035 19.5283" stroke="#535353" stroke-width="2" stroke-linecap="round"/>
</svg>
