<svg width="302" height="130" viewBox="0 0 302 130" fill="none" xmlns="http://www.w3.org/2000/svg">
<rect x="40.7891" y="39.001" width="225" height="62" fill="white"/>
<rect x="44.084" y="42.2568" width="218.41" height="55.4889" stroke="#535353"/>
<path d="M113.851 79.576C113.599 79.436 113.298 79.296 112.948 79.156C112.612 79.016 112.276 78.89 111.94 78.778C111.618 78.666 111.345 78.589 111.121 78.547C111.695 77.511 112.115 76.3 112.381 74.914C112.647 73.528 112.78 71.911 112.78 70.063V62.524H120.193V60.319H123.511V62.524H130.672V65.296H115.804V70.105C115.804 71.239 115.755 72.289 115.657 73.255C115.559 74.207 115.419 75.096 115.237 75.922C115.517 75.376 115.783 74.76 116.035 74.074C116.287 73.374 116.504 72.674 116.686 71.974C116.868 71.274 116.994 70.658 117.064 70.126L119.794 70.84V68.95H122.839V76.132C122.839 76.328 122.888 76.468 122.986 76.552C123.084 76.622 123.238 76.657 123.448 76.657H123.931C124.351 76.657 124.617 76.496 124.729 76.174C124.855 75.838 124.953 75.264 125.023 74.452C125.219 74.55 125.478 74.662 125.8 74.788C126.136 74.914 126.479 75.033 126.829 75.145C127.193 75.243 127.515 75.327 127.795 75.397C127.487 74.641 127.151 73.913 126.787 73.213C126.423 72.513 126.073 71.918 125.737 71.428L128.509 70.105C128.789 70.497 129.076 70.973 129.37 71.533C129.678 72.079 129.972 72.66 130.252 73.276C130.546 73.892 130.812 74.494 131.05 75.082C131.288 75.67 131.484 76.195 131.638 76.657C131.204 76.797 130.714 77 130.168 77.266C129.622 77.532 129.146 77.798 128.74 78.064C128.642 77.7 128.523 77.322 128.383 76.93C128.243 76.538 128.096 76.146 127.942 75.754C127.76 76.762 127.55 77.539 127.312 78.085C127.074 78.645 126.752 79.03 126.346 79.24C125.94 79.464 125.38 79.576 124.666 79.576H122.314C121.39 79.576 120.739 79.443 120.361 79.177C119.983 78.911 119.794 78.456 119.794 77.812V71.575C119.654 72.289 119.458 73.031 119.206 73.801C118.954 74.571 118.674 75.313 118.366 76.027C118.072 76.727 117.764 77.336 117.442 77.854C117.106 77.588 116.714 77.343 116.266 77.119C115.832 76.895 115.433 76.713 115.069 76.573C114.761 77.749 114.355 78.75 113.851 79.576ZM124.897 71.155C124.631 70.777 124.288 70.364 123.868 69.916C123.448 69.454 122.993 69.006 122.503 68.572C122.027 68.138 121.558 67.774 121.096 67.48L123.154 65.338C123.546 65.604 123.98 65.94 124.456 66.346C124.946 66.738 125.429 67.158 125.905 67.606C126.395 68.04 126.822 68.467 127.186 68.887C126.92 69.069 126.633 69.3 126.325 69.58C126.031 69.846 125.758 70.119 125.506 70.399C125.254 70.679 125.051 70.931 124.897 71.155ZM135.628 79.849C135.53 79.485 135.39 79.086 135.208 78.652C135.026 78.218 134.816 77.812 134.578 77.434C135.782 77.35 136.769 77.189 137.539 76.951C138.323 76.713 138.953 76.398 139.429 76.006H137.455V75.019C136.937 75.369 136.405 75.684 135.859 75.964C135.313 76.23 134.76 76.454 134.2 76.636C134.102 76.412 133.962 76.16 133.78 75.88C133.598 75.586 133.402 75.306 133.192 75.04C132.996 74.774 132.821 74.564 132.667 74.41C133.199 74.27 133.738 74.074 134.284 73.822C134.844 73.57 135.383 73.276 135.901 72.94H133.192V70.756H138.505C138.589 70.658 138.673 70.56 138.757 70.462C138.841 70.364 138.918 70.266 138.988 70.168H135.922V64.078H138.337V63.448H133.36V61.243H138.337V60.13H141.193V61.243H144.175V60.13H147.052V61.243H151.819V63.448H147.052V64.078H149.53V70.168H142.117C142.075 70.266 142.026 70.364 141.97 70.462C141.914 70.56 141.851 70.658 141.781 70.756H152.281V72.94H149.614C150.79 73.584 151.896 74.053 152.932 74.347C152.624 74.641 152.302 75.019 151.966 75.481C151.644 75.929 151.406 76.335 151.252 76.699C150.916 76.587 150.538 76.426 150.118 76.216C149.698 76.006 149.264 75.768 148.816 75.502C148.676 76.664 148.466 77.546 148.186 78.148C147.92 78.764 147.549 79.184 147.073 79.408C146.597 79.632 145.974 79.744 145.204 79.744H143.44C143.426 79.534 143.391 79.247 143.335 78.883C143.279 78.533 143.216 78.19 143.146 77.854C143.09 77.518 143.02 77.259 142.936 77.077H144.406C144.854 77.077 145.155 77.007 145.309 76.867C145.463 76.727 145.575 76.44 145.645 76.006H143.062C142.446 77.112 141.529 78.001 140.311 78.673C139.107 79.345 137.546 79.737 135.628 79.849ZM138.967 68.404H146.485V67.858H138.967V68.404ZM138.967 66.388H146.485V65.842H138.967V66.388ZM141.193 64.078H144.175V63.448H141.193V64.078ZM143.839 73.843H146.401C146.219 73.689 146.044 73.535 145.876 73.381C145.708 73.227 145.554 73.08 145.414 72.94H144.007C143.993 73.094 143.965 73.248 143.923 73.402C143.895 73.542 143.867 73.689 143.839 73.843ZM139.009 73.843H140.773C140.829 73.703 140.871 73.556 140.899 73.402C140.941 73.248 140.976 73.094 141.004 72.94H139.996C139.842 73.094 139.681 73.248 139.513 73.402C139.359 73.542 139.191 73.689 139.009 73.843ZM160.828 79.702C160.618 79.352 160.338 78.932 159.988 78.442C159.652 77.952 159.26 77.539 158.812 77.203C160.17 76.825 161.234 76.419 162.004 75.985C162.774 75.551 163.334 75.054 163.684 74.494C163.544 74.536 163.404 74.571 163.264 74.599C163.138 74.627 162.998 74.641 162.844 74.641C161.696 74.641 160.751 74.326 160.009 73.696C159.281 73.052 158.889 72.142 158.833 70.966C158.805 70.21 158.959 69.531 159.295 68.929C159.631 68.313 160.107 67.83 160.723 67.48C161.339 67.116 162.039 66.934 162.823 66.934C162.851 66.934 162.886 66.934 162.928 66.934C162.97 66.934 163.005 66.941 163.033 66.955C162.991 66.591 162.97 66.206 162.97 65.8C161.836 65.842 160.737 65.905 159.673 65.989C158.609 66.073 157.636 66.171 156.754 66.283C155.886 66.395 155.165 66.521 154.591 66.661L154.192 63.679C154.64 63.651 155.312 63.616 156.208 63.574C157.104 63.532 158.14 63.483 159.316 63.427C160.492 63.371 161.71 63.315 162.97 63.259V60.529H165.973V63.133C167.093 63.091 168.15 63.056 169.144 63.028C170.138 62.986 171.013 62.958 171.769 62.944C172.525 62.93 173.092 62.923 173.47 62.923L173.26 65.926C172.49 65.814 171.454 65.744 170.152 65.716C168.864 65.674 167.471 65.667 165.973 65.695C165.973 66.157 165.987 66.619 166.015 67.081C166.043 67.529 166.078 67.956 166.12 68.362C166.876 69.244 167.254 70.413 167.254 71.869C167.254 73.857 166.694 75.502 165.574 76.804C164.454 78.106 162.872 79.072 160.828 79.702ZM162.865 72.079C163.229 72.051 163.502 71.925 163.684 71.701C163.88 71.463 163.978 71.176 163.978 70.84C163.978 70.63 163.929 70.385 163.831 70.105C163.579 69.783 163.257 69.622 162.865 69.622C162.515 69.622 162.221 69.741 161.983 69.979C161.745 70.203 161.633 70.49 161.647 70.84C161.661 71.204 161.78 71.512 162.004 71.764C162.228 72.002 162.515 72.107 162.865 72.079ZM185.671 78.967C184.467 78.967 183.473 78.806 182.689 78.484C181.905 78.162 181.324 77.728 180.946 77.182C180.568 76.636 180.379 76.027 180.379 75.355C180.379 74.697 180.533 74.137 180.841 73.675C181.163 73.199 181.583 72.835 182.101 72.583C182.633 72.331 183.207 72.205 183.823 72.205C184.607 72.205 185.272 72.359 185.818 72.667C186.378 72.961 186.833 73.36 187.183 73.864C187.533 74.368 187.785 74.921 187.939 75.523C188.723 74.977 189.115 74.151 189.115 73.045C189.115 72.513 188.982 72.03 188.716 71.596C188.45 71.148 188.072 70.791 187.582 70.525C187.092 70.259 186.518 70.126 185.86 70.126C184.922 70.126 184.138 70.231 183.508 70.441C182.878 70.637 182.318 70.952 181.828 71.386C181.562 71.61 181.226 71.897 180.82 72.247C180.414 72.583 180.029 72.898 179.665 73.192L177.523 70.924C178.111 70.588 178.741 70.168 179.413 69.664C180.099 69.146 180.792 68.572 181.492 67.942C182.192 67.312 182.864 66.661 183.508 65.989C184.152 65.303 184.74 64.624 185.272 63.952C184.642 64.078 183.998 64.204 183.34 64.33C182.696 64.442 182.087 64.533 181.513 64.603C180.939 64.673 180.456 64.722 180.064 64.75L179.497 61.81C179.861 61.838 180.33 61.838 180.904 61.81C181.478 61.782 182.094 61.74 182.752 61.684C183.424 61.614 184.082 61.537 184.726 61.453C185.37 61.355 185.944 61.257 186.448 61.159C186.952 61.047 187.33 60.935 187.582 60.823L189.955 62.377C189.479 63.273 188.849 64.204 188.065 65.17C187.281 66.136 186.434 67.074 185.524 67.984C185.678 67.928 185.846 67.893 186.028 67.879C186.224 67.851 186.42 67.837 186.616 67.837C187.806 67.837 188.828 68.054 189.682 68.488C190.55 68.922 191.215 69.531 191.677 70.315C192.153 71.099 192.391 72.009 192.391 73.045C192.391 74.137 192.118 75.131 191.572 76.027C191.026 76.923 190.249 77.637 189.241 78.169C188.247 78.701 187.057 78.967 185.671 78.967ZM184.978 76.132H185.23C185.132 75.712 184.971 75.369 184.747 75.103C184.523 74.837 184.215 74.704 183.823 74.704C183.683 74.704 183.55 74.746 183.424 74.83C183.298 74.9 183.235 75.033 183.235 75.229C183.235 75.453 183.361 75.649 183.613 75.817C183.879 75.971 184.334 76.076 184.978 76.132Z" fill="#535353"/>
<path d="M277.275 49.2417L283.92 55.3118" stroke="white" stroke-width="2" stroke-linecap="round"/>
<path d="M281.444 41.2046L290.233 43.1457" stroke="white" stroke-width="2" stroke-linecap="round"/>
<path d="M281.026 32.1177L289.603 29.3917" stroke="white" stroke-width="2" stroke-linecap="round"/>
<path d="M276.108 24.4731L282.153 17.8054" stroke="white" stroke-width="2" stroke-linecap="round"/>
<path d="M268.05 20.3335L269.958 11.5382" stroke="white" stroke-width="2" stroke-linecap="round"/>
<path d="M258.979 20.7847L256.222 12.2177" stroke="white" stroke-width="2" stroke-linecap="round"/>
<path d="M251.456 25.6108L244.823 19.5282" stroke="white" stroke-width="2" stroke-linecap="round"/>
<path d="M68.8746 114.019L23.2142 127.166L21.3836 120.809L10.0668 81.5062L47.4909 70.7303L55.7271 68.3587L68.8746 114.019Z" fill="#B4D4FF"/>
<path d="M13.1474 123.18L-4.85911e-05 77.5199L10.0668 81.5062L21.3836 120.809L23.2142 127.166L13.1474 123.18Z" fill="#9BBBE8"/>
<path d="M-4.85911e-05 77.5199L45.6603 64.3725L55.7271 68.3587L47.4909 70.7303L10.0668 81.5062L-4.85911e-05 77.5199Z" fill="#D0E4FF"/>
<mask id="path-12-inside-1_1_5644" fill="white">
<ellipse rx="6.24017" ry="7.14236" transform="matrix(0.960957 -0.276698 -0.276698 -0.960957 48.4353 88.3249)"/>
</mask>
<ellipse rx="6.24017" ry="7.14236" transform="matrix(0.960957 -0.276698 -0.276698 -0.960957 48.4353 88.3249)" fill="white"/>
<path d="M40.9784 90.472C41.3419 91.7342 42.2062 93.06 43.6955 94.0195C45.2157 94.9991 47.636 95.6913 50.3328 94.9148L42.5853 68.008C54.976 64.4402 65.1622 73.2676 67.8852 82.7245L40.9784 90.472ZM50.3328 94.9148C53.0295 94.1383 54.7111 92.265 55.4777 90.627C56.2287 89.0224 56.2556 87.44 55.8922 86.1778L28.9854 93.9253C26.2623 84.4684 30.1945 71.5758 42.5853 68.008L50.3328 94.9148ZM55.8922 86.1778C55.5287 84.9156 54.6644 83.5898 53.1751 82.6303C51.6549 81.6507 49.2346 80.9585 46.5378 81.735L54.2853 108.642C41.8946 112.21 31.7084 103.382 28.9854 93.9253L55.8922 86.1778ZM46.5378 81.735C43.8411 82.5115 42.1595 84.3848 41.3929 86.0228C40.6419 87.6274 40.615 89.2098 40.9784 90.472L67.8852 82.7245C70.6083 92.1814 66.6761 105.074 54.2853 108.642L46.5378 81.735Z" fill="white" mask="url(#path-12-inside-1_1_5644)"/>
<path d="M46.3184 92.171C45.919 92.301 45.4823 92.0823 45.4258 91.666C45.3109 90.8197 45.4543 89.9519 45.847 89.1801C46.3554 88.1806 47.2401 87.4239 48.3064 87.0767C49.3727 86.7294 50.5332 86.82 51.5328 87.3285C52.3046 87.7211 52.9316 88.338 53.3371 89.0897C53.5365 89.4594 53.3124 89.8933 52.913 90.0234C52.5136 90.1534 52.0922 89.9257 51.8565 89.578C51.6019 89.2026 51.2547 88.8936 50.8431 88.6842C50.2032 88.3587 49.4601 88.3007 48.7774 88.523C48.0947 88.7453 47.5282 89.2298 47.2027 89.8697C46.9934 90.2813 46.8947 90.7355 46.91 91.1889C46.9242 91.6087 46.7177 92.0409 46.3184 92.171Z" fill="#737373"/>
<mask id="path-15-inside-2_1_5644" fill="white">
<ellipse rx="6.24017" ry="7.14236" transform="matrix(0.960957 -0.276698 -0.276698 -0.960957 28.9285 93.9392)"/>
</mask>
<ellipse rx="6.24017" ry="7.14236" transform="matrix(0.960957 -0.276698 -0.276698 -0.960957 28.9285 93.9392)" fill="white"/>
<path d="M21.4716 96.0863C21.835 97.3485 22.6994 98.6743 24.1886 99.6338C25.7089 100.613 28.1292 101.306 30.826 100.529L23.0784 73.6223C35.4692 70.0545 45.6554 78.8818 48.3784 88.3388L21.4716 96.0863ZM30.826 100.529C33.5227 99.7526 35.2043 97.8792 35.9709 96.2412C36.7218 94.6367 36.7488 93.0542 36.3853 91.792L9.47853 99.5396C6.7555 90.0826 10.6876 77.1901 23.0784 73.6223L30.826 100.529ZM36.3853 91.792C36.0219 90.5298 35.1576 89.204 33.6683 88.2445C32.148 87.265 29.7277 86.5728 27.031 87.3493L34.7785 114.256C22.3877 117.824 12.2016 108.997 9.47853 99.5396L36.3853 91.792ZM27.031 87.3493C24.3342 88.1258 22.6526 89.9991 21.8861 91.6371C21.1351 93.2417 21.1082 94.8241 21.4716 96.0863L48.3784 88.3388C51.1014 97.7957 47.1693 110.688 34.7785 114.256L27.031 87.3493Z" fill="white" mask="url(#path-15-inside-2_1_5644)"/>
<path d="M26.6406 97.9581C26.2412 98.0881 25.8046 97.8694 25.7481 97.4532C25.6332 96.6068 25.7766 95.739 26.1692 94.9672C26.6777 93.9677 27.5623 93.2111 28.6286 92.8638C29.6949 92.5166 30.8555 92.6071 31.855 93.1156C32.6269 93.5082 33.2538 94.1251 33.6593 94.8768C33.8587 95.2465 33.6346 95.6804 33.2353 95.8105C32.8359 95.9406 32.4145 95.7128 32.1787 95.3651C31.9242 94.9897 31.5769 94.6807 31.1654 94.4713C30.5254 94.1458 29.7824 94.0878 29.0996 94.3101C28.4169 94.5325 27.8505 95.0169 27.525 95.6568C27.3156 96.0684 27.2169 96.5226 27.2323 96.976C27.2465 97.3958 27.04 97.828 26.6406 97.9581Z" fill="#737373"/>
</svg>
